<?xml version="1.0" encoding="utf-8" ?>
<svg baseProfile="full" height="395pt" version="1.1" viewBox="0 0 673 395" width="673pt" xmlns="http://www.w3.org/2000/svg" xmlns:ev="http://www.w3.org/2001/xml-events" xmlns:xlink="http://www.w3.org/1999/xlink"><defs /><path d="M 212.22547316551208,179.1565682888031 L 213.734115421772,177.45094406604767 215.05077213048935,176.08172249794006 216.15075516700745,174.90031403303146 217.05931162834167,173.74667716026306 217.8442440032959,172.62857580184937 218.5327091217041,171.59400486946106 219.15118896961212,170.7014011144638 219.7802152633667,169.70937323570251 220.45166766643524,168.5944036245346 221.2187740802765,167.42083203792572 222.11350429058075,166.2718380689621 223.09885239601135,165.2051728963852 224.12964570522308,164.2521357536316 225.19491934776306,163.44057655334473 226.32602834701538,162.7906837463379 227.52502512931824,162.29739332199097 228.72628569602966,161.32062292099 229.69155478477478,158.23912954330444 230.48027229309082,154.5970630645752 229.8797149658203,152.83793306350708 228.16219568252563,155.1607325077057 226.64201831817627,158.27954292297363 225.3369562625885,161.4125154018402 224.12165808677673,164.34366989135742 222.98602151870728,167.4591726064682 222.0321786403656,171.39434123039246 221.3832128047943,176.02282655239105 220.97099375724792,179.68568551540375 221.10430812835693,179.46353101730347 222.09613645076752,175.014164686203 223.82955479621887,170.062535405159 225.91670393943787,166.9205882549286 227.78227257728577,166.19901180267334 229.35266089439392,167.05827248096466 231.2469720840454,169.5870419740677 233.49188017845154,170.2135008573532 231.9225947856903,169.20294964313507 229.65336871147156,169.57146692276 227.98906445503235,170.5279780626297 226.40279746055603,172.07421040534973 224.7001279592514,174.0978308916092 223.63087928295135,176.80240952968597 225.03248262405396,178.85757386684418 228.85196542739868,177.02896392345428 232.04928731918335,174.25349074602127 234.3486979007721,171.9338482618332 236.45788621902466,169.43701207637787 238.72036600112915,166.35854530334473" fill="none" stroke="black" stroke-width="1" /><path d="M 242.1887776851654,160.3166699409485 L 241.3455834388733,161.00972270965576 239.72172260284424,163.79649710655212 238.38416290283203,166.3284476995468 237.24457812309265,168.64498257637024 236.22864317893982,170.88764190673828 235.35398983955383,173.34756016731262 234.8324031829834,176.9147629737854" fill="none" stroke="black" stroke-width="1" /><path d="M 251.59475898742676,166.77799880504608 L 250.02864503860474,166.13280415534973 247.78909063339233,166.29164457321167 245.8632173538208,167.08379101753235 244.26444911956787,168.10177624225616 242.76258373260498,169.42404198646545 241.3285117149353,171.0700889825821 240.04592657089233,173.08982133865356 239.7566192150116,175.29243475198746 241.04880452156067,176.13437801599503 243.2833914756775,175.32754057645798 245.63851261138916,173.90626859664917 248.12513065338135,172.00089597702026 250.07001972198486,170.0660308599472 250.20725870132446,170.88638019561768 249.5651249885559,172.65070188045502 248.73785018920898,174.73256063461304 247.89994096755981,177.00024282932281 247.07808208465576,179.55712616443634" fill="none" stroke="black" stroke-width="1" /><path d="M 258.46904611587524,167.24789607524872 L 257.4925503730774,167.6729929447174 256.13246870040894,169.00318837165833 255.09820461273193,170.55500185489655 254.1699800491333,172.0072066783905 253.27107095718384,173.52237582206726 252.3843970298767,175.2772255539894 252.10828399658203,176.7942910194397 252.77621412277222,176.77096331119537 253.8505096435547,175.77484613656998 255.02819681167603,174.38535511493683 256.20123195648193,172.89333021640778 257.7970561981201,171.13277220726013 259.1543655395508,169.70087707042694 259.54419565200806,170.25963807106018 259.4408984184265,171.65035164356232 259.1580476760864,173.30188751220703 258.79109144210815,175.2537213563919 258.87575912475586,176.50172692537308 259.32922410964966,176.6395838856697 259.98865270614624,176.0799125432968 260.78287410736084,175.0975352525711 261.91499376296997,173.89551723003387 263.4124002456665,172.30175185203552 264.40416526794434,171.77082681655884 264.6569323539734,172.3678994178772 264.77714681625366,173.93881559371948 264.73866033554077,175.3554618358612 265.0331196784973,176.63287246227264 265.6304497718811,177.8772168159485 266.1821222305298,178.96317565441132 266.96100997924805,179.50663948059082" fill="none" stroke="black" stroke-width="1" /><path d="M 211.71756839752197,202.48239129781723 L 211.39226752519608,204.7140909433365 210.9815967231989,206.90042847394943 210.59574435651302,208.8068882226944 210.28226950764656,210.50954920053482 210.01111769676208,212.18865329027176 209.7317041605711,213.8861073255539 209.40347646176815,215.647201359272 209.03182862699032,217.44369447231293 208.64166547358036,219.22876852750778 208.23632448911667,221.07237634062767 207.79830083996058,222.95868089795113 207.3024619743228,224.73392310738564 207.0089797154069,225.11388024687767 207.32613226771355,222.15139508247375 207.80798417329788,219.2798771262169 208.37975654006004,216.32418057322502 209.0633104890585,213.42235592007637 209.91978971660137,210.51206398010254 211.10921947658062,207.35704481601715 213.03796717524529,203.26303911209106 215.83162674307823,200.6018738746643 217.8180476129055,201.37949508428574 218.1553662121296,203.53838992118835 217.53114008903503,205.53495305776596 216.59655857086182,207.03788030147552 215.623300075531,208.2520661354065 214.671078145504,209.39786142110825 213.73274755477905,210.56849962472916 212.78562170267105,211.78129410743713 211.80165737867355,213.0424810051918 210.81270368397236,214.29063761234283 210.13899821043015,215.4818393588066 210.01909625530243,216.66265493631363" fill="none" stroke="black" stroke-width="1" /><path d="M 228.26560878753662,206.45922046899796 L 226.3381198644638,206.96336817741394 224.06910687685013,208.20388066768646 222.5020425915718,209.79940205812454 221.68335342407227,211.3695169687271 221.56913697719574,212.80677354335785 221.89867287874222,214.11587151885033 222.4386538863182,215.34433117508888 223.04509454965591,216.56737878918648 223.54457300901413,217.87679827213287 223.7162690758705,219.24556082487106 223.4417571425438,220.5899132937193 222.75684463977814,221.8429867476225 221.5865963101387,222.95751497149467 219.76647239923477,223.95126032829285 222.97071361541748,222.9821463227272" fill="none" stroke="black" stroke-width="1" /><path d="M 228.13715916872025,223.7626167535782 L 229.1887989640236,224.12998521327972 228.8527331352234,224.32125905156136 228.34680235385895,224.53514835238457 228.28103190660477,224.36122944951057 228.6124303340912,224.4997889995575 228.990260720253,224.35843566060066 229.60618770122528,224.52992016077042" fill="none" stroke="black" stroke-width="1" /><path d="M 249.18543899059296,203.9925355911255 L 253.42223238945007,205.2614414691925 253.54475855827332,207.1516399383545 253.4941223859787,208.84916710853577 253.38701713085175,209.99581718444824 253.27605164051056,211.0510082244873 253.22886681556702,211.96910667419434 253.23330199718475,212.67050457000732 253.2775136232376,213.2046205997467 253.34432423114777,213.63164639472961 253.4312037229538,213.9421591758728 253.53294837474823,214.1930878162384 253.6271870136261,214.41317462921143 253.65316891670227,214.77011704444885 253.5868364572525,215.29350018501282 253.40549302101135,215.98603105545044 253.14351272583008,216.80317509174347 252.82850551605225,217.70499062538147 252.47618520259857,218.6745321750641 252.11245441436768,219.68954288959503 251.7578318119049,220.72133135795593 251.4069617986679,221.74969267845154 251.04467463493347,222.73559308052063 250.64109563827515,223.64657938480377 250.18781006336212,224.46810269355774 249.8081760406494,225.21760165691376 249.03440833091736,225.61806726455688" fill="none" stroke="black" stroke-width="1" /><path d="M 246.47140324115753,211.80967044830322 L 247.69740384817123,208.77453422546387 249.35388159751892,207.31074237823486 251.2210830450058,206.56770133972168 253.15908801555634,206.04586029052734 255.06914341449738,205.7274718284607 256.89865040779114,205.52444648742676 258.6539041996002,205.34255981445312 260.33434987068176,205.13579940795898 261.87504601478577,204.93442296981812 263.1560866832733,204.80233716964722 263.995436668396,204.77087116241455 264.2848391532898,204.84303903579712 264.2091097831726,204.9288420677185 264.1158483028412,204.94434309005737 264.28857421875,204.89956903457642 264.8211464881897,204.87529277801514 265.5447461605072,205.05855464935303 266.12869477272034,205.33151817321777 266.40807366371155,205.58304929733276 266.40868282318115,205.6959490776062 266.20057225227356,205.6573133468628 265.82929039001465,205.59236860275269 265.2378749847412,205.6426601409912 264.3440411090851,205.8997187614441 263.03759264945984,206.45639538764954 261.184809923172,207.32712125778198 258.957567691803,208.62841606140137 256.63794350624084,210.48059463500977 254.38093757629395,212.55564880371094 252.44208979606628,214.38155341148376 251.1409193277359,215.69817233085632 250.56001234054565,216.48333048820496 250.53921246528625,216.89406418800354 250.9241428375244,217.08584928512573 251.91767191886902,217.0419272184372 254.32079768180847,216.60622715950012" fill="none" stroke="black" stroke-width="1" /><path d="M 275.3549189567566,216.2449688911438 L 275.9659209251404,215.39565873146057 275.8464889526367,214.5871639251709 275.5223026275635,214.2778811454773 275.16367292404175,214.59238600730896 274.8760828971863,215.34834456443787 274.66942596435547,216.2808884382248 274.48318338394165,217.29815220832825 274.2791233062744,218.3712216615677 274.0480966567993,219.4679740667343 273.8674783706665,220.578897356987 273.9785490036011,221.53621816635132 274.5463523864746,221.95489263534546 275.36731910705566,221.75577342510223 276.2665820121765,221.2117372751236 277.1442656517029,220.54322230815887 277.9633331298828,219.87243258953094 278.7163610458374,219.22891235351562 279.378098487854,218.62950694561005 279.94382905960083,218.10741555690765 280.63066720962524,217.51484525203705 281.11513090133667,217.02349054813385 280.9200863838196,217.5177617073059 280.3833317756653,218.47647774219513 279.8149175643921,219.6176804304123 279.3693232536316,220.88239645957947 279.21523094177246,222.07443141937256 279.5109152793884,222.64553678035736 280.1156086921692,222.5122652053833 280.8786234855652,221.85301780700684 281.7219204902649,220.83470511436462 282.5996708869934,219.56898272037506 283.464964389801,218.2133458852768 284.291335105896,216.98374831676483 284.9317502975464,216.31232523918152 285.28392457962036,216.1186717748642" fill="none" stroke="black" stroke-width="1" /><path d="M 295.94241285324097,219.36240923404694 L 295.4494743347168,217.9874895811081 294.3931517601013,217.02969312667847 293.1359534263611,216.71987128257751 291.9846353530884,216.83508920669556 291.00173568725586,217.222794175148 290.0928564071655,217.82575106620789 289.19731855392456,218.6339020729065 288.4282155036926,219.6392138004303 288.0286703109741,220.76392662525177 288.1778292655945,221.80515122413635 288.8673610687256,222.48941504955292 289.91270542144775,222.66915798187256 291.1040577888489,222.43154072761536 292.3092122077942,221.9585075378418 293.45947217941284,221.38250303268433 294.4659037590027,220.78183674812317 295.3023314476013,220.12045645713806 295.9325661659241,219.11334311962128 296.0557265281677,217.77723860740662 295.4275779724121,218.44831538200378 294.84365940093994,219.69949221611023 294.50226974487305,221.1076661348343 294.5923185348511,222.54025399684906 295.28947734832764,223.7464723587036 296.5054097175598,224.23886346817017 297.8905916213989,223.7825784087181 299.1812620162964,222.7274545431137 300.3162612915039,221.42132568359375 301.33506298065186,220.01622676849365 302.2824878692627,218.57023406028748 303.18130016326904,217.0992215871811 304.06750869750977,215.57531070709229 305.00506687164307,213.9944200515747 306.01237297058105,212.26731944084167 305.67709827423096,213.1604323387146 304.9780168533325,214.71839356422424 304.25208568573,216.3573362827301 303.5008201599121,218.0312088727951 302.7733669281006,219.77458155155182 302.23250007629395,221.64584183692932 302.17467498779297,223.4636754989624" fill="none" stroke="black" stroke-width="1" /><path d="M 314.3206605911255,218.3532931804657 L 312.6713171005249,218.3621518611908 310.71541118621826,218.77652215957642 309.1622381210327,219.57130336761475 307.7623863220215,220.45760369300842 306.4480504989624,221.70285081863403 305.6084852218628,223.29647666215897 306.3152503967285,224.44460040330887 307.90224266052246,224.04780185222626 309.49905490875244,222.88211512565613 310.90105628967285,221.46578013896942 312.1566524505615,219.90696108341217 313.3359651565552,218.22743165493011 314.47454261779785,216.4505443572998 315.6196222305298,214.58983421325684 316.7923126220703,212.6985058784485 317.93393421173096,210.7989580631256 318.7621440887451,208.74247241020203 318.64379692077637,208.38218545913696 318.08832359313965,209.1855616569519 317.5317554473877,210.22241115570068 317.056170463562,211.21921968460083 316.6405601501465,212.11927032470703 316.2706184387207,212.93118977546692 315.91992950439453,213.70216035842896 315.5704288482666,214.52702569961548 315.1963481903076,215.48022508621216 314.7757978439331,216.53671205043793 314.31272983551025,217.77122128009796 313.71629428863525,219.21019530296326 312.7325668334961,220.9942181110382 312.0008211135864,222.63857567310333 311.6699323654175,224.41437357664108 311.6679563522339,226.00536167621613 312.2799062728882,226.1083413362503" fill="none" stroke="black" stroke-width="1" /><path d="M 331.2775889635086,220.3475842475891 L 332.49547028541565,216.71089220046997 333.2255403995514,213.5431661605835 333.51486241817474,211.03836059570312 333.49151253700256,209.3629584312439 333.2735447883606,208.6854953765869 333.0001254081726,209.36079120635986 332.7808862924576,210.737229347229 332.62868559360504,212.21642971038818 332.50487411022186,213.69968271255493 332.35957849025726,215.20527744293213 332.1582547426224,216.75637102127075 331.8815519809723,218.3728733062744 331.54101943969727,220.0510699748993 331.1436058282852,221.72137308120728 330.7018345594406,223.2593367099762 330.3336414694786,224.50530576705933 330.7383497953415,223.96948909759521 331.4504898786545,222.49143314361572 332.24970984458923,221.0553798675537 333.1378843784332,219.7372386455536 334.0996079444885,218.43834137916565 335.3591661453247,217.07250332832336 336.8921766281128,216.80517578125 337.41499638557434,218.34276390075684 337.3966507911682,220.0924310684204 337.175528049469,221.87789821624756 336.8804256916046,223.60666275024414 336.57292580604553,225.33586645126343 336.42219138145447,226.5513298511505 336.78829431533813,225.92028617858887" fill="none" stroke="black" stroke-width="1" /><path d="M 340.1258521080017,220.02315855026245 L 342.4249358177185,216.55893182754517 342.3062148094177,215.92723083496094 341.3309850692749,217.03211283683777 340.48874139785767,218.1725594997406 339.75489258766174,219.2091188430786 339.07064175605774,220.2671558856964 338.52413630485535,221.39409351348877 338.32647824287415,222.56218123435974 338.66714453697205,223.46415555477142 339.49528980255127,223.79162895679474 340.5972099304199,223.62113559246063 341.80674171447754,223.16768062114716 343.0003876686096,222.56569528579712 344.21113109588623,221.7549271583557 345.21383810043335,220.8539366722107 345.4654850959778,221.08048963546753 345.37471771240234,221.93075275421143 345.2406873703003,223.0519289970398 345.15631437301636,224.27292668819427 345.25405406951904,225.22179532051086 345.5284390449524,225.12579226493835" fill="none" stroke="black" stroke-width="1" /><path d="M 348.8073687553406,220.15853786468506 L 349.92051696777344,219.22832489013672 350.49793434143066,218.0077359676361 350.6621284484863,216.5280055999756 350.3174467086792,216.5401849746704 349.9634680747986,217.3819351196289 349.6840934753418,218.17240500450134 349.4232153892517,219.03884863853455 349.19122219085693,219.93263936042786 349.0269408226013,220.8809518814087 348.96688652038574,221.8971300125122 349.0497946739197,223.01597094535828 349.36143016815186,223.79677021503448 349.81998205184937,224.03259325027466 350.364191532135,223.79476535320282 350.9705123901367,223.22638058662415 351.63172483444214,222.42675256729126 352.34354877471924,221.44962239265442 353.1114044189453,220.312433719635 353.96798038482666,219.2328646183014 354.85667991638184,218.44360208511353 355.72725772857666,218.39916110038757 356.6712837219238,218.66739344596863 357.6337604522705,218.87921357154846 358.62477588653564,219.02516222000122 359.62549591064453,219.06343412399292 360.60461235046387,218.8973832130432 361.2801399230957,218.35376238822937 361.1249780654907,217.51382184028625 360.4264736175537,217.04913806915283 359.6438579559326,216.96886777877808 358.9214696884155,217.17497444152832 358.26069927215576,217.56558418273926 357.6679039001465,218.06083297729492 357.1789150238037,218.6513237953186 356.81700134277344,219.31306624412537 356.6042413711548,220.03615045547485 356.56840991973877,220.79819536209106 356.75326919555664,221.58158349990845 357.252592086792,222.42848348617554 357.8750305175781,223.03741323947906 358.72296047210693,223.5233039855957 359.7676601409912,223.86935436725616 360.6348533630371,224.07944321632385 361.41045093536377,223.98325276374817" fill="none" stroke="black" stroke-width="1" /><path d="M 381.94157084822655,216.05708223581314 L 381.9469492137432,216.23974871635437 381.78561735898256,216.73787033557892 381.54962326586246,217.39687460660934 381.37848076224327,218.12119817733765 381.3008935749531,218.83036673069 381.28627003729343,219.55038213729858 381.32125797867775,220.31419211626053 381.3959192112088,221.07806968688965 381.49946642667055,221.81738010048866 381.641026109457,222.49782782793045 381.88092482835054,223.0785078406334 382.3125314190984,223.49585419893265 382.97798646986485,223.61539489030838 383.797195866704,223.41438934206963 384.6672245413065,222.98831883072853 385.50758731365204,222.44719845056534 386.2643782198429,221.85699927806854 386.9125340282917,221.23969826102257 387.47054347395897,220.60801711678505 387.93420138955116,219.96061527729034 388.33345651626587,219.35638761520386 388.7811330258846,218.56617665290833 389.1068596839905,217.95527029037476 388.9738416969776,218.53609031438828 388.69945734739304,219.56262427568436 388.39706188440323,220.75921404361725 388.14862710237503,222.0502977669239 388.1960619688034,223.3988070487976 388.7891418337822,224.41006690263748 389.8014541864395,224.53111231327057 390.884201079607,223.88322445750237 391.8349350094795,222.88975569605827 392.6152856349945,221.77910953760147 393.22988218069077,220.64864775538445 393.70681220293045,219.60971474647522 394.10044676065445,218.49797344207764 394.55065232515335,217.3804787993431 395.02439427375793,216.8973512649536 395.22406005859375,217.32341372966766 395.24410420656204,218.13019108772278 395.2008761167526,219.14029222726822 395.1225582957268,220.23169326782227 395.0528053045273,221.36736845970154 394.99513351917267,222.6432360112667 395.115758895874,223.4623263180256 395.3617571592331,223.39824217557907 395.7008919119835,222.75926274061203 396.15274381637573,221.80253729224205 396.76333314180374,220.63590350747108 397.5685912966728,219.31404787302017 398.58530354499817,218.00068706274033 399.7258566021919,216.92513144016266 400.8634581565857,216.0947517156601 402.8025423884392,217.36760258674622 404.372983276844,217.8161119222641 405.37830632925034,217.4674322605133 405.8155149817467,217.11709016561508 405.7141419649124,217.41440176963806 405.34499007463455,218.152525305748 404.8606780767441,219.07137447595596 404.30308705568314,220.1041880249977 403.7232358455658,221.2136601805687 403.28015798330307,222.34403586387634 403.2059455513954,223.34733518958092 403.5822702050209,224.00309988856316 404.2858286499977,224.22352436184883 405.15879756212234,224.07143425941467 406.0983877182007,223.62058013677597 407.05754566192627,223.2715649306774" fill="none" stroke="black" stroke-width="1" /><path d="M 413.6139373779297,215.88031071424484 L 415.80128741264343,214.21171063184738 415.93721103668213,213.66665947437286 414.9986524581909,214.72836685180664 414.2900503873825,216.07272166013718 413.6751722097397,217.40816241502762 413.13635075092316,218.7495351433754 412.63120925426483,220.14667743444443 412.15117967128754,221.57517501711845 411.7609214782715,223.0316812992096 411.6107875108719,224.48402827978134 411.942125082016,225.75252431631088 413.03590631484985,226.4400570988655 414.843416929245,226.42725491523743 416.27636992931366,226.21646869182587" fill="none" stroke="black" stroke-width="1" /><path d="M 411.8054869174957,217.63228511810303 L 412.5325640439987,217.76413071155548 413.5881173610687,217.86505311727524 414.7334131002426,218.17572855949402 416.10031616687775,218.58874744176865 417.6496105194092,219.0074102282524 419.3697283267975,219.32405948638916 421.70552253723145,218.55598801374435 422.5658131837845,217.3804755806923 422.48200273513794,217.42252564430237 421.9502236843109,218.64524602890015 421.3854148387909,219.8711158633232 420.88936603069305,221.044635951519 420.4921523332596,222.21508464217186 420.32238137722015,223.39973160624504 420.5441528558731,224.63514956831932 421.35416173934937,225.75331529974937 422.67448449134827,226.35082322359085 424.25100219249725,226.311318308115 426.01769065856934,225.82425838708878 427.3712202310562,225.4455744624138 426.8212718963623,224.6603218317032" fill="none" stroke="black" stroke-width="1" /><path d="M 420.3847813606262,220.3540776371956 L 419.0289053916931,220.4668945670128 421.4643586874008,220.69685912132263 424.51184809207916,221.3577438890934 429.1520836353302,222.17432364821434" fill="none" stroke="black" stroke-width="1" /><path d="M 435.8245656490326,221.63592302799225 L 435.51510524749756,220.71237060427666 433.83956575393677,219.80138218402863 432.2384479045868,219.42575919628143 430.92333936691284,219.37750035524368 429.7801550626755,219.52487432956696 428.7667306661606,219.93374919891357 427.8412301540375,220.5710130929947 427.0069977045059,221.3744406402111 426.36207020282745,222.2821468412876 425.99672758579254,223.12410485744476 425.8734757900238,223.7966910302639 425.98593866825104,224.28606194257736 426.4633353948593,224.53530058264732 427.38192224502563,224.5181886255741 428.8012989759445,224.124693274498 430.53879749774933,223.18544349074364 431.95715069770813,222.29681906104088 432.89093601703644,222.0374931693077 433.5913305282593,222.26731288433075 434.1920144557953,222.72259104251862 434.7419273853302,223.20113441348076 435.27808380126953,223.49547761678696 435.8244369029999,223.54682475328445 436.41055965423584,223.3879280090332 437.1842911243439,223.06737372279167 438.20345759391785,222.78754663467407 438.9172706604004,223.23235854506493 439.25443720817566,224.104180008173 439.3963282108307,225.64195883274078 439.4294159412384,227.15983432531357 439.5912947654724,228.60873413085938 439.9821741580963,229.83538448810577 440.3089122772217,230.6772113442421 440.82850551605225,231.34311237931252" fill="none" stroke="black" stroke-width="1" /><path d="M 450.6141564846039,212.611226439476 L 452.6116016507149,213.90515804290771 454.2896826863289,214.29834854602814 455.3307502269745,214.43818140029907 455.947185754776,214.53059589862823 456.37842655181885,214.5920159816742 456.7272717952728,214.64680790901184 457.011403799057,214.70943522453308 457.27267277240753,214.7715278863907 457.5368792414665,214.81511998176575 457.80734968185425,214.79890060424805 458.105536878109,214.70137512683868 458.4506054520607,214.47914052009583 458.8690494298935,213.97555565834045 459.3377547264099,213.0595885515213 459.73223769664764,211.93763256072998 459.63770085573196,211.44260680675507 459.0568500161171,212.2763627767563 458.55639868974686,213.38480520248413 458.1044667959213,214.50607001781464 457.61695021390915,215.63551425933838 457.0424803495407,216.79397237300873 456.37150394916534,217.98982137441635 455.6156601905823,219.2171955704689 454.77416104078293,220.49290323257446 453.8251538872719,221.87922298908234 452.8188756406307,223.40499126911163 452.12983375787735,224.8759060204029 452.4119600355625,225.78311604261398 453.878066778183,225.83912760019302 455.9616926908493,225.26067107915878 458.1304385662079,224.63944923877716 458.2699165344238,223.65676587820053" fill="none" stroke="black" stroke-width="1" /><path d="M 454.6815148591995,216.47771775722504 L 456.6540901064873,215.52861607074738 458.73776483535767,215.5045086145401" fill="none" stroke="black" stroke-width="1" /><path d="M 465.31517803668976,215.78622460365295 L 466.40299212932587,213.44860875606537 466.6812196969986,212.36717176437378 466.52692329883575,212.47413659095764 466.2230726480484,213.44684982299805 465.9145805835724,214.70319604873657 465.59792304039,216.03658199310303 465.23614382743835,217.42593145370483 464.837873339653,218.82981419563293 464.4072074890137,220.294078707695 463.96182084083557,222.01055562496185 464.2018896341324,222.58321619033813 464.8641085624695,221.97099590301514 465.67022836208344,220.90109425783157 466.53217220306396,219.81690806150436 467.8077907562256,218.72112995386124 468.5010645389557,218.65259510278702 468.43834578990936,219.5657502412796 468.1613998413086,220.82845652103424 467.84762012958527,222.09849762916565 467.5386600494385,223.33453088998795 467.2748944759369,224.67132505774498 467.0932470560074,225.83227860927582" fill="none" stroke="black" stroke-width="1" /><path d="M 469.8734337091446,222.45544636249542 L 471.85697400569916,219.1018087863922 473.06937170028687,217.00935953855515 473.5097155570984,216.88732755184174 473.48124408721924,217.60897129774094 473.30897402763367,218.42018967866898 473.0739712715149,219.24290776252747 472.795613527298,220.05145519971848 472.5057599544525,220.89031982421875 472.28830778598785,221.7394722700119 472.20770370960236,222.54287695884705 472.28065526485443,223.25797855854034 472.5011169910431,223.86905282735825 472.86016714572906,224.37674522399902 473.3493287563324,224.77923327684402 473.9463369846344,225.0761001110077 474.6200222969055,225.2590830028057 475.3393654823303,225.29943385720253 476.0880014896393,225.18920493125916 476.8163392543793,224.9673337340355 477.44486260414124,224.71578267216682 477.9317259788513,224.51481333374977 478.30509090423584,224.37607419490814 478.6147127151489,224.22394934296608 478.89410877227783,224.00735959410667 479.15513134002686,223.7028964161873 479.3982763290405,223.31786441802979 479.61606788635254,222.85438323020935 479.793523311615,222.33857572078705 479.9238486289978,221.76417404413223 480.01713252067566,221.11248469352722 480.08999729156494,220.3476231098175 480.16854333877563,219.47952145338058 480.27164006233215,218.6111633181572 480.40815806388855,217.81613099575043 480.5810852050781,217.14655554294586 480.7967474460602,216.62359297275543 481.0402457714081,216.25605034828186 481.2854735851288,215.98725593090057 481.5235044956207,215.78189313411713 481.7650284767151,215.6427824497223 482.04856538772583,215.4259331226349 482.38045048713684,215.28831326961517 483.04429817199707,215.32822787761688 483.8836052417755,215.34382581710815 485.2531244754791,215.50263035297394 486.8126890659332,215.88627922534943 488.00126600265503,216.51656770706177 489.1069390773773,217.29978728294373 490.06319427490234,218.13216012716293 490.8007528781891,218.90435653924942 491.3883605003357,218.7285856604576" fill="none" stroke="black" stroke-width="1" /><path d="M 502.3997311592102,216.41746079921722 L 501.90602231025696,215.35735845565796 500.658021569252,214.58197903633118 499.67013770341873,214.31572794914246 498.77790623903275,214.3078293800354 497.9986971616745,214.47234857082367 497.3294506072998,214.71152114868164 496.723040163517,214.99539971351624 496.1529444158077,215.3026671409607 495.6165884435177,215.63363242149353 495.12171015143394,215.9914766550064 494.68187856674194,216.38122844696045 494.2987003326416,216.809184551239 493.9677039384842,217.2880049943924 493.6882577240467,217.8240101337433 493.45733964443207,218.41840052604675 493.27762895822525,219.05219846963882 493.1557469666004,219.6949850320816 493.10999397933483,220.32240146398544 493.16867856681347,220.93797808885574 493.3465687036514,221.54600697755814 493.66202625632286,222.1309935450554 494.13424645364285,222.65772306919098 494.76885563135147,223.07824730873108 495.54927277565,223.34102654457092 496.4299586713314,223.41486990451813 497.3516941666603,223.3172106742859 498.24809753894806,223.09178709983826 499.0677226781845,222.77451503276825 499.7923702597618,222.37100887298584 500.41968154907227,221.88073217868805 500.95681750774384,221.31748008728027 501.4172508716583,220.69419211149216 501.80689001083374,220.01986116170883 502.1289653778076,219.29579615592957 502.36840403079987,218.51468431949615 502.4822219610214,217.6738225221634 502.4351727962494,216.8075408935547 502.20960652828217,215.94285464286804 501.7601788043976,215.07689809799194 500.99874955415726,214.3857228755951 499.9975640773773,214.11289286613464 498.59663289785385,214.7519656419754" fill="none" stroke="black" stroke-width="1" /><path d="M 505.88860166072845,218.4954764842987 L 506.3668802976608,217.33964931964874 506.6883087158203,216.4844001531601 506.79010927677155,215.60728454589844 506.7508406639099,214.66314482688904 506.63880372047424,213.84264421463013 506.5763318538666,213.9156517982483 506.55161476135254,214.56727623939514 506.53905987739563,215.35407757759094 506.5257786512375,216.2166781425476 506.5087648630142,217.13334345817566 506.487149477005,218.12562346458435 506.4240896701813,219.26234471797943 506.13637232780457,220.4297901391983 505.8428303003311,220.85974770784378 505.98261523246765,221.10086810588837 506.28915524482727,221.17677354812622 506.675253868103,221.1564386487007 507.1091140508652,221.08529198169708 507.5733400583267,220.97356510162354 508.05890786647797,220.82727313041687 508.5585626363754,220.65849781036377 509.0735092163086,220.48213881254196 509.607626080513,220.31833845376968 510.1522636413574,220.16242271661758 510.6892011165619,220.02796572446823 511.20144295692444,219.92434179782867 511.6856997013092,219.85552597045898 512.1465439796448,219.79735904932022 512.5995154380798,219.68929606676102 513.0517680644989,219.48208630084991 513.4159348011017,219.19531631469727 513.5325314998627,219.16922217607498 513.4594960212708,219.40906476974487 513.3309988975525,219.71800589561462 513.1943821907043,220.04650622606277 513.0490429401398,220.3890323638916 512.8957386016846,220.7572374343872 512.7407712936401,221.16196990013123 512.589209318161,221.62617981433868 512.4349308013916,222.1533299088478 512.2716958522797,222.71315681934357 512.0900330543518,223.27810621261597 511.8592987060547,223.84247463941574 511.6647505760193,224.32479402422905 511.58180809020996,224.75212410092354 511.63205337524414,225.13781476020813 511.8051846027374,225.53030508756638 512.3292388916016,225.42159408330917" fill="none" stroke="black" stroke-width="1" /><path d="M 531.5199199318886,217.70927566289902 L 532.4220026731491,216.73761308193207 531.3061697483063,216.0641007423401 530.3514765501022,215.7264782190323 529.6161896586418,215.59324419498444 528.9718627929688,215.66358196735382 528.435543358326,215.78170800209045 527.9762498438358,215.9613218307495 527.5664590597153,216.17677128314972 527.1876903176308,216.40817379951477 526.830866664648,216.64562153816223 526.4832881689072,216.88298618793488 526.1447303891182,217.11590456962585 525.8214944005013,217.3510582447052 525.521392583847,217.59151643514633 525.2453759014606,217.84765005111694 524.987846493721,218.12714684009552 524.7504484057426,218.42874324321747 524.5271465480328,218.75294589996338 524.3109325766563,219.10758137702942 524.1026926040649,219.48850536346436 523.910832285881,219.88683140277863 523.7465731799603,220.29400539398193 523.621989518404,220.70933729410172 523.5504971146584,221.1364313364029 523.5478131920099,221.57465624809265 523.6319847553968,222.01718404889107 523.8180047869682,222.44425275921822 524.108643591404,222.8242673277855 524.4961728900671,223.1277884542942 524.9601938575506,223.33619612455368 525.4799155294895,223.4471152126789 526.0466252267361,223.4684492945671 526.6491583883762,223.41901496052742 527.2748622000217,223.3093305528164 527.9081954956055,223.14714562892914 528.5327750742435,222.93815380334854 529.1369142830372,222.68730089068413 529.7116354703903,222.40712976455688 530.2467764616013,222.11817300319672 530.7436155080795,221.84235998988152 531.2398891448975,221.54055282473564 531.7225068211555,221.04764580726624 532.0496216416359,220.55962026119232 532.1844637393951,220.41597732901573 532.2103803753853,220.4792652130127 532.1922244429588,220.65104335546494 532.1602139472961,220.88549786806107 532.1319819688797,221.1609030365944 532.092402279377,221.4489245414734 532.0418720841408,221.6997749209404 532.0384097099304,222.106236577034 532.046590924263,222.81010270118713 532.0370731949806,223.3934524655342 532.1743309497833,224.09346990287304 532.4382506012917,224.73992136120796 532.7589797377586,225.36469903588295 533.2553232908249,225.41067960858345" fill="none" stroke="black" stroke-width="1" /><path d="M 218.4114407300949,233.23103845119476 L 218.73793005943298,232.91169834136963 217.4600555896759,232.62822890281677 216.34279072284698,232.85207605361938 215.47851276397705,233.14502358436584 214.76963067054749,233.43940830230713 214.25117653608322,233.700110912323 213.88256818056107,233.95444059371948 213.61245238780975,234.21137189865112 213.3876794576645,234.4677996635437 213.1879294514656,234.73028564453125 212.9843274950981,235.05628323554993 212.79797899723053,235.4428551197052 212.6817654967308,235.9310896396637 212.66440385580063,236.48664903640747 212.7799026966095,237.09002375602722 213.0444015264511,237.7023402452469 213.43914806842804,238.33983504772186 213.91741800308228,238.9871711730957 214.44306200742722,239.64290487766266 214.99067229032516,240.2744358778 215.56768196821213,240.85289454460144 216.1930229663849,241.39871621131897 216.79970479011536,242.02144771814346 217.22716307640076,242.79720622301102 217.17807644605637,243.7201590538025 216.56085044145584,244.63488149642944 215.6752808690071,245.34006571769714 214.72083973884583,245.85406962037086 213.69444811344147,246.23325395584106 212.5573799610138,246.43318459391594 211.32770371437073,246.36478051543236 210.04497972130775,245.79892018437386 209.6976134777069,244.9364560842514" fill="none" stroke="black" stroke-width="1" /><path d="M 220.60544204711914,240.7828447818756 L 222.41749382019043,239.8592644929886 223.33349740505219,238.90266954898834 223.94518184661865,237.31478095054626 224.40797972679138,235.35703301429749 224.44144940376282,234.043088555336 224.03526437282562,234.55118536949158 223.53781139850616,235.7621204853058 223.01633274555206,237.16386449337006 222.45971775054932,238.6388499736786 221.88217568397522,240.13692092895508 221.3124384880066,241.63383531570435 220.80477964878082,243.19575160741806 220.47209179401398,244.86508059501648 220.5159443616867,246.52830743789673 221.1379474401474,247.88090908527374 222.2843861579895,248.53639233112335 223.61857974529266,248.48093408346176 224.8989771604538,247.97138041257858 226.09646880626678,247.16854482889175 227.29622900485992,246.01836988329887" fill="none" stroke="black" stroke-width="1" /><path d="M 220.98454344272614,240.18010145425797 L 220.8142249584198,240.02083986997604 222.3006318807602,239.9918030500412 225.7189645767212,240.62301671504974 228.0227415561676,240.8216901421547 229.77807426452637,240.69624376296997 231.36844515800476,240.56776368618011 232.93760180473328,240.45157903432846 234.45814847946167,240.1389560699463 235.2405605316162,239.45051980018616 234.7315549850464,238.7670454978943 233.70940804481506,238.45247197151184 232.63174057006836,238.3727684020996 231.56669569015503,238.49468803405762 230.50987267494202,238.87038266658783 229.44077062606812,239.46287751197815 228.39109420776367,240.22625470161438 227.52932345867157,241.20194417238235 227.02033495903015,242.37390738725662 226.99030220508575,243.57743626832962 227.4624103307724,244.60637772083282 228.32203316688538,245.34442842006683 229.39597916603088,245.79451715946198 230.54154586791992,246.01479822397232 231.68313145637512,246.05559611320496 232.798574924469,245.93855649232864 233.84851622581482,245.66091513633728 234.87962985038757,245.17160469293594" fill="none" stroke="black" stroke-width="1" /><path d="M 237.97098803520203,240.42757499217987 L 238.70621943473816,238.97649717330933 238.92963910102844,237.90565240383148 238.9682412147522,237.5408284664154 238.90044164657593,238.0100281238556 238.81557941436768,238.7893979549408 238.74458813667297,239.68930530548096 238.67252683639526,240.65351235866547 238.58423948287964,241.61583310365677 238.48017191886902,242.50077390670776 238.4169750213623,243.2701542377472 238.70344996452332,243.54802376031876 239.2469322681427,243.29668122529984 239.90335965156555,242.87208092212677 240.5945601463318,242.39599430561066 241.25848293304443,241.91220772266388 241.84044671058655,241.47426164150238 242.43368768692017,241.00133854150772 242.9370756149292,240.71829265356064 242.9663281440735,241.26962769031525 242.8677523136139,242.20119643211365 242.88723039627075,243.31570690870285 243.15968489646912,244.46036356687546 243.42480397224426,245.10554653406143" fill="none" stroke="black" stroke-width="1" /><path d="M 243.7225980758667,241.6686890721321 L 245.30024409294128,241.25769352912903 246.74134421348572,240.75983142852783 248.07307386398315,240.16239494085312 249.3521966934204,239.3103586435318 249.80258965492249,238.43616724014282 249.35279989242554,238.2425980567932 248.68128728866577,238.3922530412674 247.93253374099731,238.82505226135254 247.2121856212616,239.5368126630783 246.59711146354675,240.36038452386856 246.09630417823792,241.162034034729 245.73269319534302,241.9748151898384 245.5200891494751,242.831891477108 245.51158666610718,243.72958862781525 245.759094953537,244.60227072238922 246.2605106830597,245.32690352201462 246.97407937049866,245.8238359093666 247.8593316078186,246.0622408092022 248.8763198852539,246.04133570194244 249.97163224220276,245.77781051397324 251.0817675590515,245.3028319478035 252.1649293899536,244.6585373878479 253.18740940093994,243.8946035504341 254.10267734527588,243.05879133939743 254.85143613815308,242.15363812446594 255.32990407943726,241.14437013864517 255.49800777435303,240.14327025413513 255.39853239059448,239.26266527175903 255.13196563720703,238.5895791053772 254.77541732788086,238.0944458246231 254.36611795425415,237.75937271118164 253.89875411987305,237.53984105587006 253.16940784454346,237.51659560203552 252.0502166748047,237.7028136253357 250.93343043327332,237.93780946731567 249.9909791946411,238.44381868839264 249.39445996284485,238.74908065795898 248.99929118156433,239.10758674144745 249.2740457057953,238.7179857492447" fill="none" stroke="black" stroke-width="1" /><path d="M 272.9689989089966,233.85553073883057 L 272.92347502708435,235.61273097991943 272.45060086250305,236.9863452911377 272.12390637397766,238.31042957305908 271.8459143638611,239.47901582717896 271.63010025024414,240.58104038238525 271.47098088264465,241.60878205299377 271.32788825035095,242.5482532978058 271.17849922180176,243.42755937576294 271.01380944252014,244.26961994171143 270.82195711135864,245.113352060318 270.58637940883636,246.01895809173584 270.31924533843994,246.97928190231323 270.0382936000824,247.97182655334473 269.7545566558838,248.96218037605286 269.4579644203186,249.9482033252716 269.13087260723114,250.84712958335876 268.81231701374054,251.31723284721375 269.02515602111816,249.77047514915466 269.4333657026291,247.8278648853302 269.9067140817642,245.74326276779175 270.4517353773117,243.59810996055603 271.13200974464417,241.32753562927246 272.0690140724182,238.79666185379028 273.55863070487976,235.65517711639404 275.47476506233215,234.8057165145874 276.895222902298,236.82630968093872 277.12693214416504,239.93134927749634 275.9435787200928,242.8527011871338 273.4663920402527,244.21756863594055 271.1082274913788,244.33712363243103 270.9668353796005,244.17064714431763" fill="none" stroke="black" stroke-width="1" /><path d="M 280.0538716316223,240.8199372291565 L 281.39208221435547,238.63106870651245 280.6813440322876,238.02982902526855 279.49379777908325,238.572838306427 278.4630227088928,239.48399257659912 277.51540327072144,240.57678031921387 276.6176972389221,241.84724688529968 275.86791253089905,243.23544311523438 275.592312335968,244.56000804901123 276.11926913261414,245.37492322921753 277.3282051086426,245.33345985412598 278.77338790893555,244.73990988731384 280.1733522415161,243.99168586730957 281.4143109321594,243.27088689804077 282.4771752357483,242.6156439781189 283.3992886543274,241.99666738510132 284.32803678512573,241.2761058807373 285.13005447387695,240.2316837310791 284.88990449905396,240.61777877807617 284.33222246170044,241.68509984016418 284.0463390350342,242.853759765625 284.31059312820435,244.04362273216248 285.0974187850952,245.23042225837708" fill="none" stroke="black" stroke-width="1" /><path d="M 293.6003589630127,240.04939937591553 L 292.7198877334595,238.92490577697754 291.35269927978516,238.5000123977661 290.08248233795166,238.77829837799072 288.9496645927429,239.35566568374634 287.91840744018555,240.23424577713013 286.92966651916504,241.3593716621399 286.0452399253845,242.65456461906433 285.512571811676,244.12717390060425 285.6685404777527,245.50408554077148 286.6499128341675,246.24515771865845 288.12884283065796,246.1227216720581 289.649658203125,245.4234755039215 290.9906997680664,244.49718570709229 292.11679553985596,243.46976590156555 293.0343198776245,242.3594686985016 293.7672882080078,241.18207335472107 294.3603181838989,239.97612142562866 294.869797706604,238.7490086555481 295.33825302124023,237.4722499847412 295.7846784591675,236.18889236450195 296.2068510055542,234.9531307220459 296.5867004394531,233.76875591278076 296.9574718475342,232.45187997817993 297.1606845855713,231.2088828086853 297.02160453796387,231.28060865402222 296.738600730896,232.2142219543457 296.45324516296387,233.39581727981567 296.1856279373169,234.69045162200928 295.92518615722656,236.02555656433105 295.65150928497314,237.40524196624756 295.3582830429077,238.8776273727417 295.06828117370605,240.42201900482178 294.7975797653198,242.13223838806152 294.67347145080566,244.27168703079224 295.4477958679199,246.88958597183228 297.3536605834961,248.18481397628784 298.9761610031128,246.990731716156 299.8830795288086,245.8759684562683 300.2363986968994,245.60784769058228 300.2667169570923,245.82884097099304 300.1688871383667,246.22063446044922 300.0357093811035,246.65129709243774 299.8442039489746,247.12304186820984 299.5871810913086,247.61778676509857 299.303484916687,248.10037195682526 299.01604652404785,248.56642615795135 298.77803230285645,248.88720154762268 298.71262645721436,249.2470202445984 298.87726974487305,249.57026076316833 299.16073989868164,249.90121603012085 299.8408422470093,249.64897894859314" fill="none" stroke="black" stroke-width="1" /><path d="M 313.56763219833374,244.93377208709717 L 314.7036368250847,242.8348708152771 315.6143937110901,240.91274678707123 316.2743262052536,238.93386006355286 316.7856088876724,237.0889961719513 317.17836475372314,235.3659200668335 317.4228254556656,233.8978123664856 317.446368098259,232.9421091079712 317.1929601430893,232.91785836219788 316.7897061109543,234.1943323612213 316.4525685310364,235.76329708099365 316.1517051458359,237.31008410453796 315.7923332452774,238.976731300354 315.32477593421936,240.77920079231262 314.76064479351044,242.66436278820038 314.1535276770592,244.57846641540527 313.95384734869003,245.69225013256073" fill="none" stroke="black" stroke-width="1" /><path d="M 316.6863921880722,241.80480241775513 L 318.4926972389221,241.31447672843933 318.5011718273163,241.23384296894073 317.83772802352905,241.82260513305664 317.14332377910614,242.8808617591858 316.401948094368,243.88676166534424 315.632770717144,244.84659671783447 314.8713335990906,245.79218417406082 314.1745821237564,246.63652300834656 314.232042491436,246.90139710903168 315.31031107902527,246.30157232284546 316.5793559551239,245.32398641109467 317.6773498058319,244.59564447402954 318.6277554035187,244.16809499263763 319.47340166568756,243.87292325496674 320.23922181129456,243.5737669467926 320.9323660135269,243.19776117801666 321.58279514312744,242.69560635089874 322.06608510017395,241.83366894721985 322.03444933891296,241.16224467754364 321.6485593318939,241.2511843442917 321.2419877052307,241.77478790283203 320.8939162492752,242.46554672718048 320.6110415458679,243.21499288082123 320.4168472290039,244.01682198047638 320.3554538488388,244.86143350601196 320.47812616825104,245.69725662469864 320.8196178674698,246.4404582977295 321.3802561759949,246.9950383901596 322.1242723464966,247.2802311182022 322.9853377342224,247.2728192806244 323.88968563079834,247.02231287956238 324.77394795417786,246.60207986831665 325.5961833000183,246.07152372598648 326.3312146663666,245.46987116336823 326.9677052497864,244.81833219528198 327.5135705471039,244.12702560424805 327.9849133491516,243.39403212070465 328.3972237110138,242.59324669837952 328.7521562576294,241.64742946624756 329.0180490016937,240.37279725074768 329.0632674694061,239.37872529029846 329.12992215156555,240.20469188690186 329.59766483306885,240.87117552757263 330.31193709373474,241.14434897899628 331.0602722167969,241.20494902133942 331.7652497291565,241.16607904434204 332.40884160995483,241.0856294631958 333.00387477874756,240.98725378513336 333.5959324836731,240.79289317131042 334.212411403656,240.4176265001297 334.7645196914673,239.9336814880371 335.1743278503418,239.47428941726685 335.43466901779175,239.22427535057068 335.5740532875061,239.17489051818848 335.6078824996948,239.21897172927856 335.49982166290283,239.34123754501343 335.22195196151733,239.56601858139038 334.8337230682373,239.85357880592346 334.3749580383301,240.1669692993164 333.86004066467285,240.55538415908813 333.34590768814087,241.08655214309692 332.9555640220642,241.72569632530212 332.809241771698,242.41477847099304 332.9543147087097,243.13521802425385 333.340030670166,243.88458490371704 333.9048252105713,244.72840189933777 334.5541796684265,245.72113305330276 334.9658308029175,247.0289671421051 334.61274242401123,247.77260899543762" fill="none" stroke="black" stroke-width="1" /><path d="M 331.64077377319336,243.85270833969116 L 331.375292301178,243.27326893806458 331.64666986465454,242.82788753509521 332.22815132141113,242.32829570770264 333.0443820953369,241.88954830169678 334.0213689804077,241.84256315231323 334.91756534576416,241.98182106018066 335.9431300163269,242.03643083572388 337.2251305580139,242.0748668909073 338.2035503387451,242.03665435314178 338.86903858184814,241.8060714006424" fill="none" stroke="black" stroke-width="1" /><path d="M 318.66148911975324,240.9333574771881 L 318.5711891166866,241.8991780281067 318.43559892475605,242.89168280363083 318.41905156429857,243.93851518630981 318.53676956892014,244.75565659999847 318.99930115789175,244.24387019872665 320.49964828044176,242.92210710048676 321.74011248350143,241.9705709218979 321.877047970891,241.426462829113 321.4951775819063,241.78563207387924 321.1324098855257,242.33592641353607 320.8475669324398,242.97750812768936 320.6318378672004,243.7094405889511 320.514312453568,244.43603652715683 320.5563991293311,245.13498264551163 320.8024824857712,245.76524758338928 321.2928837686777,246.2974595427513 322.04417078197,246.63213968276978 323.00290909409523,246.69031357765198 324.061026468873,246.46715807914734 325.0967919230461,246.0324181318283 326.0074681341648,245.47529220581055 326.73999443650246,244.86349427700043 327.3116107285023,244.12934255599976 327.7594924271107,243.2458872795105 328.1250885128975,242.276875436306 328.4175069630146,241.34839123487473 328.69963136315346,240.7337625026703 329.2186034023762,240.7472888827324 330.33311837911606,240.84655368328094 332.4066955447197,240.47516161203384 335.4550620317459,239.3895766735077 337.91616797447205,237.9319108724594 337.7207974791527,237.75919806957245 336.60730040073395,238.40919816493988 335.5381756424904,239.11649346351624 334.60128915309906,239.89994525909424 333.76456385850906,240.73710024356842 332.9682068824768,241.5858166217804 332.1517783999443,242.4704338312149 331.3378669023514,243.36295926570892 330.7104062139988,244.14131593704224 330.48771661520004,244.70694231987 330.64314606785774,245.06011521816254 330.9896370470524,245.2510713338852 331.3830728530884,245.33417528867722 331.753978908062,245.3528836965561 332.11083072423935,245.33446335792542 332.4876719713211,245.2998628616333 332.8771480321884,245.26626336574554 333.24645441770554,245.22680914402008 333.5830593109131,245.1706018447876 333.88802486658096,245.0779368877411 334.1621267795563,244.93849045038223 334.4077371954918,244.75644516944885 334.62731355428696,244.5530650615692 334.822919011116,244.3508597612381 334.99710273742676,244.1591054201126 335.1507611274719,243.98323994874954 335.2820321917534,243.84251248836517 335.3886709213257,243.7432267665863 335.4764901995659,243.62781077623367 335.57413440942764,243.44820523262024 335.8084924221039,242.96781677007675 336.5192880034447,242.11042773723602" fill="none" stroke="black" stroke-width="1" /><path d="M 350.2222191095352,255.27640379965305 L 351.18315374851227,255.85062116384506 351.35590839385986,255.79499080777168 351.52907502651215,255.61804105341434 351.79453325271606,255.46772080659866 352.0582791566849,255.43561033904552 352.22268784046173,255.5146970152855 352.3022689819336,255.62691889703274 352.3322217464447,255.8724202811718 352.33102440834045,256.19329442083836 352.2918598651886,256.4580819606781 352.2198715209961,256.53085927665234 352.16891062259674,256.0134382247925" fill="none" stroke="black" stroke-width="1" /><path d="M 352.2140908241272,236.70065784454346 L 352.60067331790924,239.41320157051086 353.1584815979004,239.73107874393463 353.9725202322006,241.03278803825378 354.5672721862793,242.62752813100815 354.7551770210266,242.53808987140656" fill="none" stroke="black" stroke-width="1" /><path d="M 351.32906083762646,237.28150498867035 L 352.7785869836807,237.85495519638062 354.42555183172226,237.988998234272 355.73028442263603,237.7875675559044 356.5679880082607,237.5131916999817 357.1092946231365,237.3183399438858 357.5101276040077,237.16251361370087 357.84179678559303,237.03750532865524 358.11357349157333,236.92948758602142 358.32288548350334,236.83451628684998 358.4935513138771,236.72646099328995 358.6525794863701,236.53812181949615 358.828105032444,236.20966637134552 359.06072676181793,235.7013269662857 359.3732875287533,234.95844447612762 359.73234260082245,233.99690794944763 360.0729069709778,232.9767056107521 360.0721434354782,232.4617359638214 359.5687607526779,233.054056763649 359.01278987526894,233.993408203125 358.55565616488457,234.91363871097565 358.16969272494316,235.79767763614655 357.8112559914589,236.67047381401062 357.44295901060104,237.5504071712494 357.0408624410629,238.4510886669159 356.5985369384289,239.37251955270767 356.12031400203705,240.31372600793839 355.614398509264,241.29580289125443 355.0846951305866,242.32114657759666 354.576578527689,243.3992418050766 354.23820212483406,244.5362600684166 354.3089856207371,245.65644299983978 354.95584350824356,246.59699168801308 356.184508562088,247.16972967982292 357.7360765337944,247.15083029866219 358.4973602294922,245.74822935461998" fill="none" stroke="black" stroke-width="1" /><path d="M 354.84353119134903,238.9420789182186 L 355.5536079406738,238.33379834890366 356.74049696326256,238.24435955286026 358.02791544795036,238.26299732923508 359.6022374033928,238.42877089977264 361.25406634807587,238.6559277176857 364.11398243904114,239.2114079296589 366.13936299085617,237.71221286058426 366.8233143091202,235.32091355323792 366.96246802806854,233.82476073503494 366.7831473350525,233.53385746479034 366.56049036979675,234.2595253586769 366.39973360300064,235.31238198280334 366.2607638835907,236.43898487091064 366.0913078188896,237.58549976348877 365.86915653944016,238.7524824142456 365.59499847888947,239.96469828486443 365.2924944758415,241.20567190647125 364.965860247612,242.48652836680412 364.74093145132065,243.65732181072235 364.7891255617142,244.24656750261784 365.1181029677391,244.21382497251034 365.7213310599327,243.7524627149105 366.4815871119499,243.12574338912964 367.1004163622856,242.81724563241005 367.4755939245224,243.00582200288773 367.69847244024277,243.53065252304077 367.8462478518486,244.20826555788517 367.95426934957504,244.93493981659412 368.06599086523056,245.66866582632065 368.29948127269745,246.3012124300003" fill="none" stroke="black" stroke-width="1" /><path d="M 372.58145093917847,242.73716515302658 L 372.8997050523758,242.49425572156906 372.5997757911682,242.69572019577026 372.273570895195,243.26985383033752 372.0176863670349,243.98179779946804 371.86623096466064,244.7430570870638 371.83282566070557,245.43085393309593 371.9011433124542,245.79341688752174 372.03372061252594,245.73583880066872 372.2577819824219,245.26277223229408 372.3451279401779,243.91018849611282" fill="none" stroke="black" stroke-width="1" /><path d="M 377.85948646068573,235.4218454360962 L 377.9447045326233,235.57702964544296 377.5864586830139,236.2575951218605 377.24558889865875,237.07574594020844 377.03691589832306,237.82201302051544 377.0888212919235,238.36819875240326 377.4092233181,238.6115875840187 377.86307883262634,238.69837778806686 378.330087184906,238.76315689086914 378.76458394527435,238.8641476035118 379.1760369539261,239.01402086019516 379.50201654434204,239.26689317822456 379.66233146190643,239.62216311693192 379.6496567726135,240.0443450510502 379.517427444458,240.47696301341057 379.318004488945,240.90986323356628 379.1075015068054,241.32115978002548 378.9030967950821,241.71668869256973 378.68362164497375,242.14388805627823 378.42009675502777,242.6337849497795 378.0684323310852,243.16915225982666 377.60779762268066,243.8463203161955 376.90513718128204,244.62370459735394 376.2476179599762,244.78413373231888 375.7643450498581,245.11570465564728 375.4805701971054,245.4660685658455 375.36496090888977,245.87955370545387 375.79105377197266,245.70964640378952" fill="none" stroke="black" stroke-width="1" /><path d="M 392.73378098011017,238.76854276657104 L 394.0650668144226,237.80213689804077 394.6659811735153,236.90105056762695 394.7251977920532,236.4726004600525 394.5937433242798,236.69238185882568 394.45869410037994,237.29218339920044 394.37125289440155,238.08691358566284 394.31777560710907,238.91990280151367 394.28265058994293,239.7198781967163 394.25627076625824,240.4800317287445 394.23027777671814,241.20958065986633 394.1929050683975,241.91908752918243 394.1318061351776,242.63580894470215 394.032194852829,243.37781047821045 393.87885773181915,244.1525993347168 393.656420648098,244.9745157957077 393.37035501003265,245.83361840248108 393.0507632493973,246.6757214665413 392.7317603826523,247.40611320734024 392.65099757909775,247.5666627883911 393.0063640475273,246.5589348077774 393.43349331617355,245.36354160308838 393.86941277980804,244.23051929473877 394.32962560653687,243.2473281621933 394.8558624982834,242.2875461578369 395.47466242313385,241.39360880851746 396.2068601846695,240.7767150402069 397.1191599369049,240.63944673538208 397.74105870723724,241.28129398822784 397.9400202035904,242.26832723617554 397.91549050807953,243.36725211143494 397.7811064720154,244.42734098434448 397.6170160770416,245.4007283449173 397.4858822822571,246.29310911893845 397.47773134708405,247.02082461118698 397.60766768455505,247.2771886587143 397.720223903656,246.190389752388" fill="none" stroke="black" stroke-width="1" /><path d="M 403.3585705757141,240.98132228851318 L 402.72655749320984,240.9963343143463 401.7707016468048,241.56862771511078 401.10267066955566,242.41701936721802 400.6433036327362,243.38216698169708 400.34796619415283,244.37300300598145 400.24348640441895,245.36649978160858 400.3897168636322,246.30601054430008 400.82137846946716,247.08518302440643 401.5375545024872,247.61706626415253 402.498352766037,247.84184312820435 403.57648277282715,247.73530340194702 404.6190097332001,247.3616380095482 405.52453780174255,246.81172972917557 406.2545051574707,246.12678921222687 406.80930638313293,245.33003544807434 407.224858045578,244.43568801879883 407.51255655288696,243.42147147655487 407.50594878196716,242.3414055109024 406.9903995990753,241.26256561279297 405.7919325828552,240.48337078094482 404.14336347579956,240.16170954704285 403.20671463012695,240.28731441497803 403.5396041870117,240.6757960319519 404.8986711502075,241.03071308135986 406.7625799179077,241.1626431941986 408.760080575943,241.1562887430191 410.6579079627991,241.14723420143127 412.31895112991333,240.94098544120789 413.7347688674927,239.75199675559998 414.7947540283203,237.51926636695862 415.27052068710327,235.73076105117798 415.1356520652771,235.2847239971161 414.7680940628052,235.89773273468018 414.40517568588257,236.85355043411255 414.03880500793457,237.88316583633423 413.61034774780273,238.92051196098328 413.11217212677,239.9318084716797 412.5752511024475,240.91126537322998 412.0380845069885,241.87941825389862 411.53494024276733,242.92477107048035 411.12918519973755,244.12978565692902 410.93753004074097,245.48482394218445 411.143816947937,246.83710074424744 411.87365436553955,247.79728150367737 412.75239610671997,247.88824892044067" fill="none" stroke="black" stroke-width="1" /><path d="M 410.45318269729614,241.37412106990814 L 411.39710092544556,241.10563492774963 412.2318425178528,240.92825388908386 413.05362367630005,240.86632227897644 413.91295337677,240.82309222221375 414.7979083061218,240.79791164398193 415.6885757446289,240.85169768333435 416.588095664978,240.97665166854858" fill="none" stroke="black" stroke-width="1" /><path d="M 418.83933210372925,242.72189831733704 L 419.99573612213135,242.84664905071259 420.9656205177307,242.72999560832977 421.9476547241211,242.554554104805 422.9661502838135,242.36645555496216 424.0076651573181,242.199089884758 425.04447841644287,242.03951454162598 426.08532094955444,241.8281648159027 427.04447174072266,241.38128018379211 427.2736134529114,240.71004009246826 426.82389640808105,240.2669415473938 426.1851325035095,240.0634799003601 425.54832124710083,239.99630546569824 424.93202352523804,239.9742124080658 424.34682512283325,239.97842407226562 423.77391719818115,240.04237270355225 423.19543266296387,240.20230269432068 422.5866189002991,240.4396150112152 421.9297137260437,240.71616983413696 421.22988843917847,241.04198491573334 420.5217685699463,241.4276692867279 419.8446502685547,241.88926672935486 419.2291941642761,242.43916368484497 418.715371131897,243.0664405822754 418.3363356590271,243.70846009254456 418.1138696670532,244.31393361091614 418.05261278152466,244.866126537323 418.1502356529236,245.351145029068 418.4020414352417,245.77334082126617 418.7941493988037,246.13496428728104 419.3070068359375,246.4413878917694 419.93291759490967,246.7037216424942 420.6701340675354,246.9190022945404 421.5032091140747,247.07250273227692 422.37841510772705,247.18512749671936 423.39246892929077,247.3341498374939 424.2472138404846,247.37144595384598 425.1562490463257,247.3452723622322 426.34957218170166,247.39512032270432 427.2799482345581,247.30338609218597 427.98210287094116,247.21834635734558" fill="none" stroke="black" stroke-width="1" /><path d="M 454.89914858341217,238.97802597284317 L 453.3240249156952,238.37373518943787 451.78794795274734,238.08003187179565 450.6957154273987,238.01244020462036 449.739081799984,238.20672869682312 448.9543700814247,238.4111284017563 448.292412340641,238.70659911632538 447.7115933895111,239.06689774990082 447.19394448399544,239.44784939289093 446.71494486927986,239.84211659431458 446.2365880012512,240.25485134124756 445.7542313337326,240.69221448898315 445.2712832391262,241.17496293783188 444.8006975352764,241.71159321069717 444.3584659099579,242.29809111356735 443.96081943809986,242.91347694396973 443.6099936515093,243.54909271001816 443.3032273054123,244.20183607935905 443.05921825766563,244.87901884317398 442.9171418249607,245.597764223814 442.9315163195133,246.34183833003044 443.1448978930712,247.0375746935606 443.562498614192,247.5964398086071 444.12629885971546,247.9614366889 444.7421778589487,248.14484198391438 445.33577820658684,248.20132952928543 445.8876604139805,248.17627336084843 446.36761382222176,248.10888040065765 446.7542412877083,248.03444977104664 447.0420547425747,247.97045204043388 447.15130415558815,247.9617298990488 447.12788677215576,248.09399834275246" fill="none" stroke="black" stroke-width="1" /><path d="M 461.21300637722015,243.72745209932327 L 460.88696295022964,242.27877366542816 459.5742313861847,241.13447427749634 458.20732510089874,240.62881976366043 456.93718379735947,240.40041625499725 455.84809052944183,240.3823117017746 454.9222549200058,240.45854133367538 454.05343413352966,240.70726239681244 453.14709746837616,241.1402683854103 452.1949186325073,241.74678093194962 451.2822959423065,242.57977876067162 450.54381692409515,243.69692131876945 450.1624278128147,245.05057087540627 450.3182735443115,246.36205387115479 451.0317148566246,247.24419929087162 452.12200474739075,247.51442608237267 453.34379547834396,247.2943019270897 454.5228157043457,246.82046556472778 455.5855031609535,246.25506189465523 456.5136018395424,245.6627066731453 457.32397335767746,245.06801077723503 458.08391523361206,244.47644537687302 458.8039805293083,243.88629126548767 459.3319227695465,243.32100024819374 459.61868792772293,242.96238327026367 459.81341576576233,242.92779511213303 460.05779469013214,243.0762883722782 460.40279257297516,243.18102541565895 460.7915685772896,243.05761742591858 461.143990278244,242.63930824398994 461.39157354831696,241.92746722698212 461.41487514972687,241.15705239772797 461.14771032333374,240.8992327451706 460.6463403701782,241.31338441371918 460.17368310689926,242.3806555867195 459.9498733282089,243.7675846517086 460.12016052007675,245.1726821064949 460.72683078050613,246.35095569491386 461.6714631319046,247.09783047437668 462.774080991745,247.34122681617737 463.8739426136017,247.11715824902058 464.8811285495758,246.54548013210297 465.76379561424255,245.79892140626907 466.52916610240936,245.00056305527687 467.1977002620697,244.21405640244484 467.7918184995651,243.45824825763702 468.3375611305237,242.7358873486519 468.8643580675125,242.02635696530342 469.4146919250488,241.32993811368942 470.0477479696274,240.67579972743988 470.8167508840561,240.18052804470062 471.8726929426193,239.69008791446686 473.0394277572632,238.18571519851685 473.85357689857483,236.6867322921753 473.6055179834366,237.14196467399597 473.0818603038788,238.44138193130493 472.59973645210266,239.82975733280182 472.12468469142914,241.25545585155487 471.6119318008423,242.75435051321983 471.0313243865967,244.2985134422779 470.37666153907776,245.86563375592232 469.6608933210373,247.51173868775368 468.92691791057587,249.33738461136818 468.807448387146,249.8647435605526" fill="none" stroke="black" stroke-width="1" /><path d="M 469.8358556032181,245.58378088474274 L 471.61622512340546,243.48633134365082 474.6859232187271,242.30077412724495 478.03964400291443,241.5193675160408 477.55645871162415,241.1416289806366 475.8705372810364,241.57682794332504 474.3356531858444,242.4517288506031 472.9403483867645,243.56751331686974 471.71129405498505,244.92928138375282 471.016636967659,246.49261155724525 471.6304769515991,247.48832380771637 473.1931036710739,247.07890731096268 474.69342589378357,246.16880241036415 475.9263279438019,245.2462556362152 476.973100066185,244.28052654862404 477.88371753692627,243.1868533194065 478.7009984254837,241.99671176075935 479.49211382865906,240.80575346946716 480.2537943124771,239.57749271392822 481.03038001060486,238.34590995311737 481.87287509441376,237.14307367801666 482.72768688201904,235.82963490486145 483.6158113479614,234.07919597625732 483.9420087337494,232.8611490726471 483.6550145149231,232.70122718811035 483.21098732948303,233.03675597906113 482.811240196228,233.53444969654083 482.4857687950134,234.1214257478714 482.2101950645447,234.73127782344818 481.96151781082153,235.35763728618622 481.7208789587021,235.9943482875824 481.47623467445374,236.6278499364853 481.22198235988617,237.26503658294678 480.95954394340515,237.9230114221573 480.69008100032806,238.6154179573059 480.4063812494278,239.38393771648407 480.1070953607559,240.25977677106857 479.7735229730606,241.24593418836594 479.3898751735687,242.3825149834156 478.8642247915268,243.6518445611 478.25604248046875,244.90319538116455 477.77073180675507,246.09700566530228 477.4984225034714,247.21673141419888 477.39296448230743,248.24838396906853 477.82411670684814,248.2531385421753" fill="none" stroke="black" stroke-width="1" /><path d="M 495.40091690421104,242.57837063074112 L 496.6129333972931,242.12396043539047 497.5144672989845,241.26539015769958 498.0858244895935,240.39933276176453 498.411141037941,239.7149134874344 498.56276202201843,239.22851419448853 498.58516651391983,238.92145812511444 498.5018082857132,238.8589358329773 498.3562469482422,239.07213282585144 498.2040482163429,239.47900891304016 498.06677973270416,240.0013530254364 497.9461371898651,240.55772042274475 497.84078162908554,241.12295949459076 497.7402561903,241.68893027305603 497.6438479423523,242.25044322013855 497.55078065395355,242.8416047692299 497.4504153430462,243.45528292655945 497.3209797143936,244.11371856927872 497.14484146237373,244.83840960264206 496.920493721962,245.60453218221664 496.64512875676155,246.36788886785507 496.38035717606544,247.0340626835823 496.3698160946369,247.22189939022064 496.67738178372383,246.61752501130104 497.0997948348522,245.6944135427475 497.5400185585022,244.74846547842026 497.97627449035645,243.89349740743637 498.4199649691582,243.13299083709717 498.89464461803436,242.45577651262283 499.417025744915,241.8344830274582 500.0149861574173,241.22188687324524 500.7295346856117,240.62521982192993 501.58171540498734,240.03793835639954 502.5348378419876,239.3960621356964 503.588516831398,238.93252384662628 504.5223933458328,239.53180873394012 504.97168266773224,240.8024923801422 505.0219043493271,242.17760944366455 504.83471834659576,243.44192445278168 504.52160799503326,244.56074249744415 504.16478085517883,245.59233617782593 503.8125456571579,246.55505421757698 503.49989449977875,247.39653077721596 503.28682947158813,248.03420531749725 503.29762053489685,248.33181303739548 503.60674834251404,248.1112276315689 504.1161148548126,247.46053633093834 504.6882643699646,246.5278091430664" fill="none" stroke="black" stroke-width="1" /><path d="M 513.7198693752289,242.79972636699677 L 514.278037071228,241.79486572742462 513.76704621315,240.69981849193573 512.9262702465057,240.05550038814545 512.0141410827637,239.77625346183777 511.1977517604828,239.8238959312439 510.51257503032684,239.98175144195557 509.913543343544,240.22319960594177 509.3283883333206,240.57419562339783 508.6732791662216,241.04111778736115 507.9333220720291,241.61689472198486 507.18771409988403,242.32921755313873 506.53388917446136,243.27195072174072 506.08290362358093,244.4987931251526 505.946106672287,245.87737238407135 506.1866192817688,247.13296484947205 506.7807425260544,248.03500354290009 507.6349617242813,248.48129683732986 508.6231733560562,248.49468857049942 509.6215065717697,248.19374525547028 510.544335603714,247.70436146855354 511.3546438217163,247.1127651333809 512.0541617870331,246.46911811828613 512.6588089466095,245.80601489543915 513.1782026290894,245.14546406269073 513.618816614151,244.47804248332977 513.9763357639313,243.78896689414978 514.2086601257324,243.0841156244278 514.2460114955902,242.40853315591812 514.0326128005981,241.7993471622467 513.7336301803589,241.4382392168045 513.7814872264862,241.48013639450073 514.280558347702,241.71777367591858 515.2219085693359,241.9984142780304 516.5408473014832,242.20518630743027 518.036322593689,242.2922518849373 519.5253348350525,242.19691920280457 520.9581129550934,241.82048296928406 522.2492382526398,241.03574693202972 523.2648234367371,239.5948942899704 523.6659166812897,237.74702715873718 523.170300245285,237.01568746566772 522.4568176269531,237.36052298545837 521.8616805076599,238.01207661628723 521.3425743579865,238.71927213668823 520.84131026268,239.45734095573425 520.3378446102142,240.24461436271667 519.8345313072205,241.04878997802734 519.3337242603302,241.85812401771545 518.8505704402924,242.6756597161293 518.4302296638489,243.54914897680283 518.1336824893951,244.51841938495636 518.0263233184814,245.55835849046707 518.1622383594513,246.55747973918915 518.5499677658081,247.39111030101776 519.1542522907257,247.98949825763702 519.9405965805054,248.31906932592392 520.8667440414429,248.14910578727722" fill="none" stroke="black" stroke-width="1" /><path d="M 521.0436174869537,242.99442791938782 L 519.8665418624878,242.24801313877106 519.3538815975189,242.15045475959778 519.3794569969177,242.2570816874504 519.6506433486938,242.38203239440918 520.0119647979736,242.46926909685135 520.3864269256592,242.51362425088882 520.7537415027618,242.53694820404053 521.1152710914612,242.54829448461533 521.4638831615448,242.56184554100037 521.8050751686096,242.60429579019547 522.1400852203369,242.6632877588272 522.4830496311188,242.69183665513992 522.8564839363098,242.6709921360016 523.2129859924316,242.59865671396255 523.5344090461731,242.57980078458786 523.9082295894623,242.54622435569763 524.3839290142059,242.58613777160645 524.9010589122772,242.64725351333618 525.5200204849243,242.4470153450966" fill="none" stroke="black" stroke-width="1" /><path d="M 536.9888439178467,235.08200979232788 L 539.2593238353729,234.82434463500977 540.6784191131592,233.87716579437256 541.2376153469086,233.44132471084595 541.2638309001923,233.87707710266113 541.1461234092712,234.750018119812 541.0245614051819,235.8316421508789 540.9087665081024,236.9649577140808 540.7933177947998,238.06489086151123 540.675595998764,239.10601568222046 540.5461947917938,240.10699462890625 540.3811001777649,241.10300254821777 540.1576764583588,242.1387801170349 539.8530411720276,243.2870373725891 539.4282994270325,244.56925988197327 538.8747315406799,245.9602656364441 538.2537568807602,247.37047815322876 537.6584166288376,248.6381916999817 537.3118855953217,249.01889657974243 537.6126173734665,246.9618489742279 538.2970352172852,244.7617473602295 539.3215246200562,243.01637744903564 541.2784035205841,241.81301474571228 544.053329706192,241.7945375442505 544.8973500728607,242.4875853061676 544.4462389945984,243.5298044681549 543.5819554328918,244.645587682724 542.4022362232208,245.58796572685242 540.9358875751495,246.46453309059143 539.0098354816437,247.54706370830536 536.7829629182816,248.22345316410065 535.9428033232689,247.87328505516052 539.9623866081238,246.3942277431488 543.0678174495697,245.67398238182068 544.4155595302582,245.49437308311462 545.335705280304,245.40263438224792 546.2476935386658,245.3617947101593 547.3727879524231,245.35948514938354 548.7367134094238,245.39928197860718 550.2673435211182,245.43787789344788 551.8748993873596,245.45216870307922 553.4649457931519,245.40294480323792 554.8739252090454,245.13117480278015 555.6067690849304,244.426677942276 555.4521007537842,243.6731038093567 554.862060546875,243.2018847465515 554.1229610443115,242.9197292327881 553.3441505432129,242.68561601638794 552.5513195991516,242.43322801589966 551.7583799362183,242.24728226661682 550.9564452171326,242.18054747581482 550.1218018531799,242.2051830291748 549.2548532485962,242.30736804008484 548.373616695404,242.489999294281 547.5127491950989,242.7717249393463 546.7050666809082,243.16277956962585 545.9883346557617,243.66652274131775 545.3989367485046,244.2700183391571 544.9697182178497,244.94190311431885 544.7263116836548,245.64192461967468 544.675523519516,246.3310956954956 544.8143825531006,246.98095560073853 545.1215920448303,247.57337260246277 545.5956921577454,248.10279059410095 546.2676935195923,248.56859731674194 547.1579895019531,248.94837737083435 548.4069876670837,249.3074278831482 549.7254614830017,249.55326199531555 551.1592016220093,249.939222574234 553.2303447723389,250.24916005134583 554.7590665817261,250.300927400589 555.7516813278198,250.29864287376404" fill="none" stroke="black" stroke-width="1" /><path d="M 212.11301797628403,260.1165714263916 L 212.66294395923615,260.2401819229126 213.0131070613861,260.33279609680176 213.14688205718994,260.59980392456055 213.18655228614807,261.05697679519653 213.20139741897583,261.5635266304016 213.204824924469,262.11985325813293 213.20710945129395,262.74005794525146 213.2023297548294,263.4114799499512 213.19447231292725,264.15904664993286 213.1958727836609,264.9565360546112 213.21195816993713,265.7995572090149 213.24482989311218,266.6674292087555 213.31693947315216,267.53793692588806 213.4691880941391,268.3710879087448 213.79320323467255,269.10092306137085 214.40717196464539,269.45917320251465 215.18038773536682,269.2091999053955 215.94759821891785,268.56096613407135 216.6615014076233,267.7337975502014 217.31329321861267,266.8539915084839 217.89533758163452,265.9929037094116 218.40624475479126,265.19585704803467 218.859516620636,264.479798078537 219.2674834728241,263.8241081237793 219.63613200187683,263.22146797180176 219.95702290534973,262.60544538497925 220.30710554122925,261.8627209663391 220.59775042533875,261.42365980148315 220.59116435050964,262.42264103889465 220.5321385860443,263.69020438194275 220.4647343158722,265.1053657531738 220.42903804779053,266.58624839782715 220.58461689949036,268.07010078430176 221.25070452690125,268.6126540899277 222.0943250656128,267.8427188396454 222.87255334854126,266.6563391685486 223.55982398986816,265.4024736881256 224.15802526474,264.14334177970886 224.71218824386597,262.7559587955475 225.35101890563965,261.57644271850586 225.96960926055908,261.68467235565186 226.2236523628235,262.3722541332245 226.21998739242554,263.10826802253723 226.13130569458008,263.9194703102112 226.01891613006592,264.7947072982788 225.90156984329224,265.70210790634155 225.79363632202148,266.661527633667 225.70859241485596,267.73648405075073 225.65672779083252,269.0183389186859 225.7477355003357,269.90801191329956 225.9308180809021,269.82036089897156 226.17863988876343,269.12778091430664 226.49134397506714,268.1429953575134 226.86812496185303,267.00862193107605 227.30863094329834,265.8163528442383 227.80889797210693,264.62805557250977 228.3768768310547,263.5038859844208 229.02995538711548,262.4316189289093 229.7859263420105,261.4249572753906 230.63450717926025,260.60257625579834 231.55566787719727,260.0609230995178 232.51329231262207,259.806143283844 233.64366674423218,259.77087688446045 234.77822399139404,260.09256887435913 235.3478422164917,260.94937229156494 235.43861961364746,262.14719104766846 235.2484588623047,263.44052934646606 234.86780261993408,264.68054461479187 234.34595489501953,265.88749074935913 233.73894739151,267.11217880249023 233.27624702453613,268.32648634910583 233.4110770225525,269.19385159015656 234.20261192321777,269.3941764831543 235.2450656890869,269.1723213195801 236.29067516326904,268.81436336040497 237.28861141204834,268.38660752773285 238.2826738357544,267.9271969795227" fill="none" stroke="black" stroke-width="1" /><path d="M 245.44096755981445,257.5307445526123 L 245.84746742248535,256.96884393692017 246.07623767852783,256.86647367477417 245.76339626312256,257.2439069747925 245.28508186340332,258.10319232940674 244.84949684143066,259.1364436149597 244.4432144165039,260.14621591567993 244.03189373016357,261.221293926239 243.65118598937988,262.33943033218384 243.33516597747803,263.4791188240051 243.13946914672852,264.6191556453705 243.1457462310791,265.7892789840698 243.44286918640137,266.9966199398041 244.11466026306152,268.1402201652527 245.19952011108398,268.96892619132996 246.54812908172607,269.136266708374 246.7893934249878,268.37689757347107" fill="none" stroke="black" stroke-width="1" /><path d="M 242.45994758605957,261.94787216186523 L 242.01167678833008,261.0694680213928 242.68715572357178,260.7341718673706 244.03874015808105,261.0582342147827 245.9003620147705,261.6584711074829 248.00018119812012,262.29523038864136 250.2337875366211,262.8862211704254" fill="none" stroke="black" stroke-width="1" /><path d="M 253.67885398864746,259.1259021759033 L 254.00757122039795,257.4458808898926 253.66853713989258,258.61196517944336 253.28893661499023,259.77171516418457 252.86414909362793,260.94161319732666 252.40571308135986,262.2089991569519 251.9374179840088,263.49128460884094 251.53139305114746,264.7644999027252 251.32617473602295,266.0712149143219 251.5152711868286,267.3291337490082 252.2733449935913,268.3064581155777 253.65091037750244,268.73827481269836 255.15638637542725,268.70701813697815" fill="none" stroke="black" stroke-width="1" /><path d="M 250.1037940979004,262.63450479507446 L 249.75687503814697,262.6999056339264 251.25591373443604,263.164959192276 253.02390003204346,263.5703511238098 254.691481590271,263.7316827774048 256.6480436325073,263.7756509780884 259.1506404876709,263.6604061126709 261.7830390930176,263.0291814804077 262.395938873291,262.18229150772095 261.72530937194824,261.63878297805786 260.7942867279053,261.49399518966675 259.8739242553711,261.52069997787476 258.9572067260742,261.74546337127686 257.98748874664307,262.16903495788574 256.9448947906494,262.7538638114929 255.90723609924316,263.51954221725464 254.9941234588623,264.4874269962311 254.36034107208252,265.5390839576721 254.1091718673706,266.45998430252075 254.23035335540771,267.11509561538696 254.6803150177002,267.5100197792053 255.61843585968018,267.6746337413788 257.8816394805908,267.5573582649231" fill="none" stroke="black" stroke-width="1" /><path d="M 265.1856937408447,261.97736501693726 L 265.6947555541992,262.36593770980835 265.63314628601074,263.2076463699341 265.5667419433594,264.12384819984436 265.58520698547363,265.0232071876526 265.7262268066406,265.7240033149719 265.9717655181885,265.70742654800415 266.25391387939453,265.01776909828186 266.53882026672363,264.2798433303833 266.7927589416504,263.88262820243835 267.0467777252197,264.0389666557312 267.28068923950195,264.5520417690277 267.4757194519043,265.23412108421326 267.66811180114746,265.99626111984253 267.8510856628418,266.69631695747375 268.0180892944336,267.27428007125854 268.20495414733887,267.7330365180969 268.57998275756836,268.8973888158798 268.45438957214355,270.2214527130127 268.402925491333,270.68458366394043 268.71482849121094,271.21423411369324 269.04405212402344,271.50940585136414 269.57348442077637,271.55187702178955" fill="none" stroke="black" stroke-width="1" /><path d="M 292.4038785099983,262.19773972034454 L 295.0796662569046,261.9802521467209 293.5978518128395,261.8066734075546 292.39343923330307,261.7844234108925 291.530121922493,261.8723090291023 290.7865505218506,262.09835934638977 290.22043266892433,262.321003139019 289.7814190685749,262.57593417167664 289.4267373383045,262.83650839328766 289.1338175535202,263.08600801229477 288.8796662390232,263.3344680070877 288.6370951831341,263.5926288962364 288.3899777531624,263.8576662540436 288.1232025921345,264.1267771720886 287.8388625383377,264.39302629232407 287.5382254123688,264.6762264966965 287.2302746772766,264.98889178037643 286.9263204932213,265.33964547514915 286.6468178629875,265.7167334854603 286.40308544039726,266.1143563389778 286.19174076616764,266.534091591835 286.0136606693268,266.98182478547096 285.87612959742546,267.4616781771183 285.7858889698982,267.97643542289734 285.75340212881565,268.5134307742119 285.7855664938688,269.06128895282745 285.89908570051193,269.59328323602676 286.1326619684696,270.07647293806076 286.51974956691265,270.47601252794266 287.0906569957733,270.7241758108139 287.8359073102474,270.75652250647545 288.69137477874756,270.5631453245878 289.57223150134087,270.20043028891087 290.40526607632637,269.7562539577484 291.1475079357624,269.3064030110836 291.80228942632675,268.88301491737366 292.4013666510582,268.46526491642 292.9644647240639,268.0205424427986 293.49802070856094,267.53843143582344 293.9996699690819,267.01386684179306 294.46638083457947,266.44771161675453 294.9029924273491,265.83879590034485 295.3225272297859,265.16714656352997 295.71825486421585,264.4228016734123 296.05148047208786,263.6004419326782 296.2404372692108,262.72691410779953 296.2080616950989,261.87689673900604 295.92560893297195,261.06886863708496 295.33485662937164,260.3531213402748 294.39115303754807,259.8948724269867 293.0137075781822,260.10251528024673" fill="none" stroke="black" stroke-width="1" /><path d="M 298.5228416323662,265.4674462080002 L 299.8806429505348,263.56972205638885 300.5671573281288,260.644848048687 300.61231303215027,259.5296585559845 300.47495126724243,260.0102072954178 300.31425458192825,260.9523808956146 300.12571001052856,262.0438877940178 299.88955676555634,263.16030716896057 299.6111934185028,264.2376115322113 299.30861407518387,265.3980671465397 299.02840930223465,266.6867119371891 298.9506243467331,267.3264381289482 298.9997460246086,267.28234243392944 299.1295416355133,266.88631695508957 299.31335693597794,266.3121108710766 299.54512745141983,265.70033448934555 299.8170288205147,265.15992015600204 300.1378004550934,264.74568313360214 300.5068545937538,264.4229998588562 300.9003195166588,264.1415516138077 301.27980160713196,263.9068728685379 301.6144654750824,263.79978024959564 301.8887518644333,263.8592834472656 302.11612379550934,264.06264662742615 302.3141167163849,264.3512793779373 302.4875912666321,264.6920043230057 302.6283029317856,265.08043533563614 302.6934051513672,265.4736748933792 302.6902002096176,266.0837242305279 302.50684809684753,267.00441735982895 302.21975326538086,267.6580425798893 302.1738965511322,268.25814867019653 302.4757499694824,268.89051312208176 302.878648519516,269.48083451390266 303.49845933914185,269.4130539596081" fill="none" stroke="black" stroke-width="1" /><path d="M 323.44173207879066,260.6158384680748 L 324.6854193806648,259.7863973379135 325.69738210737705,258.96633517742157 326.33271154761314,258.2827706336975 326.6737158894539,257.912868976593 326.82152384519577,257.84751284122467 326.86389192938805,258.0260624885559 326.84257677197456,258.39449965953827 326.78139129281044,258.88202583789825 326.70059421658516,259.4087727069855 326.60772827267647,259.96875339746475 326.51178753376007,260.5617688894272 326.42427760362625,261.20146518945694 326.34014412760735,261.8994104862213 326.2494783550501,262.6207982003689 326.1326796412468,263.39814054965973 325.9622553884983,264.23483151197433 325.7258579134941,265.10916352272034 325.4197915792465,266.0036222040653 325.0534835457802,266.90753307938576 324.6532038152218,267.8316876590252 324.3468815088272,268.71113097667694 324.36449351906776,269.3638568222523 324.8259042799473,269.6423951983452 325.60772363841534,269.59074890613556 326.52030408382416,269.3635895848274 327.43871462345123,269.07659098505974 328.33152732253075,268.78111776709557 329.1924498975277,268.4611456990242 329.9917113482952,268.0497659146786 330.6874680519104,267.50514605641365 331.26981845498085,266.805584192276 331.7590162754059,265.8650818169117 332.16089004278183,264.6733524799347 332.4063404202461,263.64746618270874 332.35814505815506,263.68584010005 332.09171748161316,264.34593656659126 331.77172726392746,265.3256759047508 331.4796624183655,266.4761680662632 331.28162947297096,267.7246650159359 331.23114225268364,268.8870892971754 331.4538930952549,269.5480159521103" fill="none" stroke="black" stroke-width="1" /><path d="M 337.0131343603134,260.8143163919449 L 337.3292493224144,259.905590236187 337.3977584838867,260.1980981826782 337.4164288043976,260.94088929891586 337.43019622564316,261.89012664556503 337.4061686396599,262.9717848300934 337.33398950099945,264.10949152708054 337.1832337975502,265.3671746850014 337.10364335775375,266.5037379562855 337.2315568327904,266.3346617817879 337.51143014431,265.4278776347637 337.8964986205101,264.48264384269714 338.41307920217514,263.86203530430794 339.05847573280334,263.7952052950859 339.5576314330101,264.4112845659256 339.8165025115013,265.3533584475517 339.9705376625061,266.37881165742874 340.1093596816063,267.30786913633347 340.2921375632286,268.1051519662142 340.6517390012741,268.63491354882717 340.7717742919922,268.39946642518044" fill="none" stroke="black" stroke-width="1" /><path d="M 339.7829307317734,265.0226975083351 L 341.0135396718979,265.1723392009735 342.54642856121063,265.15544816851616 344.00871670246124,264.94009298086166 345.3820617198944,264.72489362955093 346.69196569919586,264.4731910228729 347.92865788936615,264.08331978321075 349.0985745191574,263.43390530347824 349.66918337345123,262.5094909965992 349.2753793001175,261.88935309648514 348.4999601840973,261.70340716838837 347.6461147069931,261.7559108734131 346.7612421512604,261.9669207930565 345.87066185474396,262.3304650783539 344.9977630376816,262.8305119872093 344.1748995780945,263.457700073719 343.465532541275,264.24026012420654 342.9522063732147,265.17932492494583 342.71504724025726,266.1542302072048 342.8197041749954,267.0235422849655 343.2652759552002,267.7187457382679 343.92421209812164,268.21314123272896 344.8488235473633,268.3920576274395" fill="none" stroke="black" stroke-width="1" /><path d="M 355.61115181446075,264.6213507056236 L 354.7621454000473,264.3259920179844 353.65554213523865,264.14344507455826 352.70298528671265,264.39643317461014 351.9112915992737,264.8508550822735 351.24883818626404,265.50365352630615 350.6572759151459,266.3133566379547 350.1636840105057,267.25573655962944 349.98749256134033,268.27395808696747 350.3983497619629,269.1370986700058 351.2860811948776,269.5167911052704 352.34905529022217,269.43013858795166 353.4266391992569,269.0191790610552 354.45555460453033,268.40432050824165 355.3883296251297,267.65309420228004 356.17877662181854,266.8361932039261 356.84431421756744,265.9898247420788 357.434707403183,265.1176181137562 357.97845482826233,264.187451004982 358.48903226852417,263.23008888959885 358.9749187231064,262.29012286663055 359.4308044910431,261.3725459575653 359.85580587387085,260.4475164413452 360.24246525764465,259.5447496175766 360.61009883880615,258.6283618211746 360.96090960502625,257.67794036865234 361.3427724838257,256.48140013217926 361.4624197483063,255.1840581893921 361.173312664032,254.717813372612 360.7462760210037,254.9279658794403 360.33549892902374,255.45688569545746 359.9759963750839,256.1107624769211 359.66247367858887,256.8046735525131 359.3845843076706,257.5153799057007 359.1224037408829,258.23901629447937 358.85332131385803,259.01660710573196 358.5685576200485,259.86484122276306 358.2485636472702,260.792103767395 357.9306024312973,261.89223074913025 357.60205686092377,263.30735805630684 357.18108344078064,264.80042669177055 356.98150527477264,266.3694308102131 357.0879946947098,267.9074097275734 357.35041558742523,269.27713546156883 358.01816618442535,269.3068682849407" fill="none" stroke="black" stroke-width="1" /><path d="M 382.2869565486908,257.84860157966614 L 382.08636340498924,259.4106457233429 381.645726531744,260.76930487155914 381.31624484062195,262.02783846855164 381.02529591321945,263.11905151605606 380.7928778529167,264.1085021495819 380.6058683395386,265.03469091653824 380.41761541366577,265.9170476794243 380.20954774320126,266.79632607102394 379.96634989976883,267.717034637928 379.6921623647213,268.6887046098709 379.4086660295725,269.72012692689896 379.1344212591648,270.77317529916763 378.8663370013237,271.83479595184326 378.60168823599815,272.8720542192459 378.3560724556446,273.73859825730324 378.3227861523628,273.5370132625103 378.6002439856529,271.92437751591206 378.94790664315224,270.3577891588211 379.31009028851986,268.8479669690132 379.69930924475193,267.3355969488621 380.15577495098114,265.7895601987839 380.74666526913643,264.22609716653824 381.5611251294613,262.6696243882179 382.732012540102,260.9311842918396 384.4469429552555,259.4341307282448 386.3789557814598,259.4238982796669 387.27168756723404,260.86928510665894 387.1787592768669,262.5623769760132 386.5168786048889,263.92093056440353 385.50545781850815,264.8233697414398 384.29583474993706,265.5613460242748 382.9563874900341,266.24318367242813 381.49756440520287,266.79708006978035 379.99436198174953,267.08667385578156 378.4667008668184,266.9677456319332 377.2491354495287,266.5994364321232 378.3616369664669,266.2937660217285" fill="none" stroke="black" stroke-width="1" /><path d="M 391.96625930070877,261.2567979693413 L 391.0150158405304,261.26660680770874 389.5249813199043,261.5978439450264 388.5432598590851,262.3313764333725 387.92753624916077,263.146427154541 387.76105880737305,264.04373091459274 388.1855587363243,264.8902412056923 389.1363114118576,265.38789135217667 390.31505411863327,265.4342019557953 391.4949991106987,265.20050621032715 392.5724071264267,264.84663128852844 393.5578355193138,264.4036474227905 394.55499613285065,263.91238844394684 394.7382342815399,264.16604870557785 394.3995051383972,264.8185030221939 393.91774928569794,265.5592917203903 393.4464356303215,266.3890323936939 393.139744579792,267.2232202887535 393.0208951830864,267.7658793628216" fill="none" stroke="black" stroke-width="1" /><path d="M 400.7756202220917,260.266722202301 L 401.3996624946594,258.99847435951233 400.9184412956238,259.3592545390129 400.3155164718628,260.4368928670883 399.791130900383,261.66195303201675 399.31053483486176,262.9618770480156 398.81979954242706,264.31046003103256 398.2753795385361,265.7028338909149 397.67486613988876,267.33041697740555 397.0364910364151,269.38050669431686 396.8264900445938,269.7289665341377 396.9905903339386,268.8514812886715 397.43985706567764,267.2180629372597 398.17718970775604,265.11388820409775 399.2386636734009,262.8370888829231 400.39782297611237,260.96803426742554 400.40367126464844,261.3943945169449 399.9937673807144,262.56125831604004 400.0078877210617,263.5142428278923 400.92871487140656,263.19466388225555 402.5381375551224,263.21870547533035 404.42474937438965,263.96020567417145 406.17326152324677,263.9102580547333 408.31597793102264,263.7106183767319 411.25792479515076,263.0862018465996 411.27566158771515,262.2801675796509 409.7824753522873,262.1331789493561 408.51875698566437,262.21623396873474 407.56807696819305,262.4215615391731 406.7769869565964,262.7408800125122 406.0748221874237,263.19684088230133 405.42267084121704,263.7498523592949 404.8444826602936,264.34584724903107 404.37581074237823,264.9373606443405 404.0168579816818,265.464608669281 403.75352597236633,265.9360169172287 403.57641303539276,266.3819180727005 403.500190615654,266.7935068011284 403.5938537120819,267.1169434785843 404.02295303344727,267.26176607608795 405.012259721756,267.0184253156185 406.3538730144501,266.13259878754616 407.4618179798126,265.2793827056885 408.2234307527542,264.90166771411896 408.7743159532547,264.86400479078293 409.2175657749176,265.00547963380814 409.5949078798294,265.31562262773514 409.93234837055206,265.81928008794785 410.238600730896,266.2407420873642 410.47769236564636,266.4691200852394 410.66515016555786,266.5545056462288 410.8198926448822,266.53123793005943 410.9513132572174,266.42272928357124 411.062872171402,266.2396357655525 411.1588877439499,265.99557253718376 411.250648021698,265.6948511004448 411.34935879707336,265.3463487625122 411.4670182466507,264.96621137857437 411.6103438138962,264.56482768058777 411.78606939315796,264.15781915187836 411.99695324897766,263.75421047210693 412.25271785259247,263.355641245842 412.5525187253952,262.97634559869766 412.88260567188263,262.6310237646103 413.2370947599411,262.32599699497223 413.6199643611908,262.06351631879807 414.0326566696167,261.8474778532982 414.47803139686584,261.68267291784286 414.9579941034317,261.5701584815979 415.4741268157959,261.51426935195923 416.02953600883484,261.50969874858856 416.6410290002823,261.55733501911163 417.3276970386505,261.64934891462326 418.1012394428253,261.77531468868256 418.9716638326645,261.92325472831726 419.9982262849808,261.9381318092346 420.87721061706543,262.1097090244293 421.7790479660034,262.2627214193344 422.76603507995605,262.36664712429047 423.49218797683716,262.5809513926506 424.0302414894104,262.11584931612015" fill="none" stroke="black" stroke-width="1" /></svg>